<svg id="Layer_1" data-name="Layer 1" xmlns="http://www.w3.org/2000/svg" viewBox="0 0 360 360"><defs><style>.cls-1{fill:#fff;}</style></defs><title>White circle Logo</title><path class="cls-1" d="M32.93,191.42c.65,0,.46-.51.47-.85,0-3.7.13-7.41,0-11.1-.11-2.41.69-4.6,1.18-6.86.65-3,1.62-6,2.27-9a69,69,0,0,1,1.68-7.31c.77-2.37,1.36-4.79,2-7.2.88-.48.4-1.4.62-2.1.64-2.07,2-3.74,2.94-5.63a108.33,108.33,0,0,0,5-12.13,25.7,25.7,0,0,1,2.52-4.85c2.08-3.38,4.27-6.68,6.06-10.24A33.15,33.15,0,0,1,62.2,107c1.27-1.44,2.2-3.19,3.39-4.71.84-1.08,1.86-2,2.7-3.13,1.39-1.84,3.08-3.46,4.63-5.19,1-1.08,1.88-2.21,2.84-3.3s2-2.08,2.9-3.27A13.76,13.76,0,0,1,82,84.65a59.43,59.43,0,0,0,5.14-3.49,33.93,33.93,0,0,0,4.49-4.7,15.46,15.46,0,0,1,4.79-4.19c4-2.26,8.22-4.29,12-7a24.06,24.06,0,0,1,5.12-3,2.93,2.93,0,0,1,3.24.63c1,.81,1.89,1.9,2.88,2.8.7.63,1.51,1.16,2.61,2-1.59.54-2.81.89-4,1.36a16.94,16.94,0,0,0-2.81,1.24q-4.5,2.82-9,5.73a27.58,27.58,0,0,1-3.14,1.52,20.24,20.24,0,0,0-6.66,5c-.69.82-1.33,1.66-2,2.48a27.14,27.14,0,0,1-5.33,4.28c-1.58,1.12-3.16,2.25-4.68,3.45A20.5,20.5,0,0,0,81.79,96,37.15,37.15,0,0,0,79,99.12a40.67,40.67,0,0,1-3.48,4c-2.44,2.8-4.56,5.83-6.87,8.72a54.41,54.41,0,0,0-5,8.1,100.57,100.57,0,0,1-5.25,8.68,30.6,30.6,0,0,0-3.26,7.16,45.08,45.08,0,0,1-5.08,10.9,16.94,16.94,0,0,0-1.92,4.85c-.4,1.32-.83,2.69-1.15,4.05s-.75,2.66-1.19,4a22.13,22.13,0,0,0-.58,3.08c-.43,2.33-.95,4.63-1.53,6.93-.55,2.12-1.16,4.24-1.79,6.34a7,7,0,0,0-.35,3.72c.72,0,1.49,0,2.26,0,4.12-.25,8.19.81,12.32.5.89-.07,1.68.69,2.64.46.58-.14,1.25.24,1.75-.39a.69.69,0,0,1,.65-.08,6.76,6.76,0,0,0,4.06.4c.67-.06,1,1.08,1.63.38s1.17-.24,1.76-.3a9,9,0,0,0,1.88,0c2.82-1,5.7-.14,8.79-.52a4.26,4.26,0,0,0-.35.62c-.23.62-.69,1.29-.58,1.85a4.2,4.2,0,0,0,1.15,1.85,32.75,32.75,0,0,0,5.94,3.32,23.6,23.6,0,0,0,8.86,1.45c3.07-.15,6.15-.14,9.21,0A17.8,17.8,0,0,0,114,186.25c-1.14.09-1.9-.11-2.86.36a12.67,12.67,0,0,1-4.3,1c-.86.09-1.81-.52-2.62-.35s-1.64-1.28-2.47-.1l-2.59,0c-.94,0-1.89,0-2.83,0-3.3.11-5.74-.73-9.7-2.24-2-.77-3.44-2.29-5.34-3.09a1,1,0,0,1-.49-.5c-.55-1.6-1.91-2.67-2.65-4.1a19,19,0,0,1-1.65-4.5c-.2-.87-.6-1.67-.74-2.55,0-.2-.23-.39-.25-.59-.18-1.67-.3-3.34-.5-5-.09-.81-.31-1.6-.45-2.41s.3-1.57-.45-2.18c-.08-.07,0-.3,0-.46-.16-1.58-.38-3.17-.46-4.76s0-3.31,0-5a7.26,7.26,0,0,0-.37-2.68c-.68-1.59.24-2.61,2.07-3A42.89,42.89,0,0,1,86,143.22h.23a5,5,0,0,1,1.66.52c.34.25.39.88.54,1.29.33-.13.83-.47,1-.36a2.21,2.21,0,0,0,2.76.09,1.71,1.71,0,0,1,.65-.12c1.09-.08,1.54.33,1.58,1.44,0,.47,0,.94,0,1.42,0,3.23-.06,6.46,0,9.68a41.18,41.18,0,0,0,.52,7.12c.42,2,.64,4.3,2.47,5.81a5,5,0,0,0,2.66,1c.85.12,1.57.81,2.52.08.42-.32,1.16-.2,1.72-.38,1.58-.52,2.23-1.91,2.83-3.27a10.14,10.14,0,0,0,1-5.27c-.12-1.07.77-2,.52-3.12,0-.21.55-.67.92-.83a3.26,3.26,0,0,1,1.17,0c2,0,3.95-.13,5.9,0s3.79-.64,5.72-.52,3.69-.28,5.52.75c.66,8.1-.74,15.79-6.81,22.51,1.37-.26,2.41.24,3.42-.53.3-.23.92,0,1.39-.05,1-.09,2,.32,2.85-.41.87.84,1.93.32,2.9.4s2.05,0,3.07,0c.54,0,1.2.13,1.59-.13s.63-.24.86.11a1.28,1.28,0,0,0,1.45.48c.49-.08,1-.42,1.45-.39a5.43,5.43,0,0,1,1.55.65c.48,1.9-.72,4.32,1.22,6.37a25.92,25.92,0,0,0,5.42-.07c3.26-.68,6.5-.25,9.74-.38.87,0,1.5-.2,1.71-1.31-.4,0-.75-.12-1.1-.13-3.62,0-7.24,0-10.87,0a3.87,3.87,0,0,1-3.21-1.2V172.68a33.87,33.87,0,0,0-.07-6.13c-.75-4-.27-8.07-.38-12.1s0-8-.05-12c0-1.21.69-2.1.68-3.29a3,3,0,0,1-1.79-2c-.1-.49.35-1.18.14-1.56-.41-.74-.73-1.3,0-2,.15-.15,0-.79-.16-1.06-.77-1.06.64-.25.72-.77a6.13,6.13,0,0,1-.44-.89,6.29,6.29,0,0,1-.59-2.13c0-8.58,0-17.17,0-25.75,0-.07.07-.13.15-.25h16.68a3.55,3.55,0,0,1,1.14,2.81c-.05,2.84,0,5.67,0,8.51,0,.51.22,1.09-.34,1.52a.71.71,0,0,0-.11.64c.92,2.49.26,5.07.46,7.61,0,.3-.06.71.11.89a2.22,2.22,0,0,1,.29,2.42c-.64,1.53-.24,3-.4,4.56a10.13,10.13,0,0,0-.26,2.09c.07.63.59,1.19.7,1.82a13.45,13.45,0,0,1,0,2.32l1.42,1c0,2.12,0,3.85,0,5.58,0,1.46-.68,2.79-.51,4.29a14,14,0,0,1,0,4.24,6.57,6.57,0,0,0-.37,2.88c.71,2.76.37,5.54.43,8.32s0,5.51,0,8.26c0,1.38.69,2.64.52,4.07a33.36,33.36,0,0,0,0,4.15c1.12-.19,2.18.31,3.17-.48a1.16,1.16,0,0,1,1.13,0c1.08,1,2.63-.11,3.65.91a10.41,10.41,0,0,0,2.33-.65c.49-.26.75-.05,1.16,0,2,.12,4,0,6,0a10.34,10.34,0,0,0,1.07-.25,37,37,0,0,0,5-.55,12.25,12.25,0,0,1,2.66-.41,3.36,3.36,0,0,1,.71,0,5.21,5.21,0,0,0,1.68.41c.44-.07.79-.64,1.2-1,.82.52,1.3,1,.81,1.93-.66,1.21-1.28,2.38-.33,3.75.18.27,0,.77,0,1.17,0,1.56.23,1.77,1.7,1.77,4.56,0,9.12,0,13.79,0v-1.89h-9.68a13.45,13.45,0,0,1-1.42,0,2.6,2.6,0,0,1-2-2c-.09-.74.17-1.54-.48-2.17a.61.61,0,0,1,0-.46c1-2.65.27-5.39.46-8.08.17-2.39-.8-4.72-.47-7.13-.84-1.35-.45-2.86-.45-4.29q0-19.6,0-39.21c0-.48,0-1,0-1.42,0-1-.37-1.4-1.35-1.42-1.34,0-2.68,0-4,0h-7.8a6.26,6.26,0,0,1-2.65-.45c-1.09-.48-1.57-.81-1.14-1.81.66-1.53.34-3,.41-4.56s.05-3.3,0-5c0-.73.2-1.45-.39-2.21s.36-1.35.61-2.08c1.64,0,3.29,0,4.94,0,1.83-.07,3.65.18,5.5-.39a3.71,3.71,0,0,1,3.15.25,3.84,3.84,0,0,1,2.8-.28c2.29.69,4.65.05,6.89.49,3.25.64,6.5.31,9.74.39s6.61,0,9.92,0c1.26,0,2.52,0,3.78,0a1.16,1.16,0,0,1,1.28,1.25c0,.4.17.95,0,1.16-.91,1-.16,1.79.16,2.7l1.55-1.8c.11.77.17,1.11.21,1.45.16,1.51.38,3,.45,4.53s0,3.15,0,4.73c0,.58.3,1.31-.39,1.71a9.6,9.6,0,0,1-1.8.78.72.72,0,0,1-.6-.21,1.92,1.92,0,0,0-2.33-.21,5.6,5.6,0,0,1-2.66.44h-9a2,2,0,0,0,.09,1.92,2.06,2.06,0,0,1,.21.62,2.46,2.46,0,0,1,0,.47,71.08,71.08,0,0,0,.08,8.26,60.54,60.54,0,0,1,.38,7.84c0,.9.33,1.86-.28,2.72-.06.08.1.32.17.49a7.23,7.23,0,0,1,.28,4.8,29.71,29.71,0,0,0-.06,5.82c.64.47.31.82,0,1.33-.22.32,0,.92,0,1.39,0,2.44,0,4.88,0,7.32,0,.73.26,1.5-.41,2.21-.23.25.07,1,.14,1.53,0,.07.16.12.16.17a9.2,9.2,0,0,0-.31,2.11c.07.72.83,1.49.39,2.14-.59.89-.34,1.78-.43,2.67a14.56,14.56,0,0,1-.39,3.85c-.6,1.63.45,2.75,2.25,2.8.66,0,1.41.31,2-.29a1.12,1.12,0,0,1,.4-.16c.68-.27,1.29.41,2,.12a14.73,14.73,0,0,1,2.12-.59c1.4-.35,2.67.52,4.05.49.66,0,1.42-.32,2,.42.08.11.5.12.67,0,1.53-.87,3.19-.3,4.78-.45a11.52,11.52,0,0,0,1.71-.39,4.83,4.83,0,0,1,2.68.21,12.41,12.41,0,0,0,4.94.67c1.16-.1,1.49.31,1.51,1.47,0,1.34,0,2.68,0,4s.3,1.57,1.67,1.58c3.23,0,6.46,0,9.69,0,1.91,0,3.76.71,5.71.51.77-.08,1-.5,1.42-.8a1.45,1.45,0,0,0-1.66-1.14c-3.15,0-6.3,0-9.45,0a8.42,8.42,0,0,1-4.45-1.52V163.3l2.08-.89c-2.16-.56-2.21-.56-2.15-2.3,0-.81-.37-1.7.37-2.45a1.22,1.22,0,0,0,0-1.12c-.81-1.47-.42-3-.43-4.55,0-6.85-.05-13.7,0-20.55,0-1.93-.71-3.75-.54-5.71s0-3.94,0-5.91.33-4-.07-5.89c-.65-3-.25-6-.38-9-.07-1.63.2-1.82,1.86-1.84.94,0,1.89,0,2.83,0h6.86a46.6,46.6,0,0,0,6.66-.4,30.08,30.08,0,0,1,6.84,0c3.85.33,7.72.73,11.3,2.34a17.36,17.36,0,0,1,9.15,8.93,18.15,18.15,0,0,1,1.75,6.61,21.4,21.4,0,0,0,.44,2.17c.11.66-.18,1.36.46,2,.19.18,0,.75,0,1.15,0,1.57,0,3.15,0,4.72a32.58,32.58,0,0,1-.54,6.87c-.86,3.33-1.79,6.74-4.48,9.24a8.47,8.47,0,0,0-.67.67c-.59.66-.66,1.19,0,1.76a14,14,0,0,1,3.28,4.79,33.56,33.56,0,0,1,2,6,29.92,29.92,0,0,1,.91,8.36c0,.6-.18,1.23.43,1.73a8.73,8.73,0,0,1-.19,3c0,.12-.19.24-.16.33a20,20,0,0,1,.63,2.09,3.72,3.72,0,0,1,0,2.19c-.54.88,0,1.63-.36,2.39a2.82,2.82,0,0,0,.68.1c1.82-.38,1.81-.33,4.21.3a4.35,4.35,0,0,0,2.21,0,5.92,5.92,0,0,1,3.81,0,5,5,0,0,0,3.16.1,5.68,5.68,0,0,1,3.71,0,4.51,4.51,0,0,0,3.76-.39,2.14,2.14,0,0,1,1.24-.45c1.68,0,3.38.22,5.15-.74a6.53,6.53,0,0,0-.39-2.58c-.92-2.54-1.24-5.28-2.39-7.76.28-1.25-.51-2.34-.53-3.57a25.61,25.61,0,0,0-.44-3.35,16.41,16.41,0,0,0-.52-3.33,43.6,43.6,0,0,0-2-4.12A25.35,25.35,0,0,1,312.5,149c-.37-1.57-1-3.1-1.22-4.69a30,30,0,0,0-2.34-7.54c-.85-1.85-2.21-3.49-2.44-5.6-2.17-3-3.62-6.42-5.7-9.45a27.79,27.79,0,0,0-2.83-3.31,40.66,40.66,0,0,1-4.23-5.81c-1.77-2.66-3.15-5.56-5.26-8-1-1.17-1.8-2.57-2.76-3.8a14.29,14.29,0,0,0-2.65-2.88,50.92,50.92,0,0,1-6.56-5.24c-2.11-2.12-4.24-4.22-6.34-6.35-1.4-1.41-3.06-2.49-4.57-3.74a52.34,52.34,0,0,0-5.49-3.93c-2.36-1.5-4.77-2.93-7.15-4.41-1.81-1.13-3.59-2.34-5.42-3.44-1.57-1-3.2-1.79-4.79-2.7a37.38,37.38,0,0,1-4-2.26,16.61,16.61,0,0,0-4-1.73c-2-.8-4.08-1.57-6.12-2.34a4,4,0,0,0-1.07-.27,4.31,4.31,0,0,1-2.19-.44c-.58-.36-1.41,0-2.2-.4s-2.13.21-3-.59c-1.93,0-3.51-1.05-5.21-1.69-2.25-.84-4.51-1.67-6.78-2.45-.91-.32-1.89-.13-2.86-.48-.77-.28-1.76-.33-2.59-.61-1.86-.62-3.79-.35-6-.49a6.64,6.64,0,0,1,.73-.89c.33-.31.71-.56,1.06-.85,2-1.67,4-3.36,6-5a1.58,1.58,0,0,1,1.27-.28c1.56.5,3.21.6,4.77,1,3.59,1,7,2.55,10.46,3.83a3.39,3.39,0,0,0,.82.3c3.09.14,6,1.23,9.1,1.45.86.06,1.55.73,2.43,1,1.45.41,2.75,1.49,4.2,1.75s2.53,1.64,4.11,1.53c1.64,1.71,4,2.14,5.92,3.45s3.78,2.26,5.68,3.36c2.49,1.45,4.85,3.07,7.35,4.49,2.23,1.28,4.48,2.57,6.59,4,1.72,1.17,3.36,2.58,5,3.9,4,3.16,7.26,7.1,11,10.51,1.72,1.57,3.72,2.83,5.53,4.29a12,12,0,0,1,2.67,2.61c1.13,1.78,2.53,3.35,3.71,5.07s2.32,3.62,3.53,5.39c1.79,2.65,3.18,5.57,5.46,7.92,1.53,1.57,2.76,3.43,4.17,5.12a23.51,23.51,0,0,1,2,3.42c2.17,3.8,4.07,7.75,6.08,11.65.06,1.61,1.42,2.71,1.6,4.3a25.72,25.72,0,0,0,1,4.31c.63,2.1.88,4.32,1.9,6.3s1.9,3.78,2.85,5.67a17,17,0,0,1,1.32,4.65,22.67,22.67,0,0,0,.84,4.61c.3,1.08.07,2.2.51,3.33.7,1.84.92,3.87,1.54,5.75a32.31,32.31,0,0,1,.92,3.64c.9,4.33.22,8.7.4,13,0,1-.56,2-.47,3.11a4.63,4.63,0,0,1-.41,3.13c-.19.27,0,.77,0,1.16,0,1.74,0,3.47,0,5.2s.31,3.53-.44,5.23c.95,1.6.41,3.35.4,5,0,3.32-.27,6.64-.43,10-1,1.81-.11,3.88-.89,5.78-.68,1.68-.77,3.57-1.43,5.31A11,11,0,0,0,325,236c-.08,1,0,2,0,3.07a5,5,0,0,1-.82,2.75c-.63,1.07-1.56,2.15-1.58,3.59a2.48,2.48,0,0,1-.71,1.34,4.46,4.46,0,0,0-1.18,2.36,3.13,3.13,0,0,1-.83,1.52,1.55,1.55,0,0,0-.54,1.44,1.61,1.61,0,0,1-1,1.93c-1.51.54-1.87,1.9-2.31,3.06a72.86,72.86,0,0,1-5.95,12c-1.22,2-2.34,4.06-3.54,6.08-1.92,3.24-3.81,6.5-6,9.56a70.61,70.61,0,0,1-9.19,11.08,44.08,44.08,0,0,0-5.38,6.26c-.91,1.22-2,2.28-3,3.46-2.18,2.62-4.6,5.06-7,7.51a18.43,18.43,0,0,1-2.64,2.18,42.7,42.7,0,0,0-3.89,2.55c-2.09,1.84-4.6,2.9-7,4.2-3.3,1.79-6.44,3.85-9.66,5.78-1,.61-2.05,1.15-3.06,1.75-2.71,1.61-5.58,3-8.23,4.68a15.14,15.14,0,0,1-3.31,1.1c-2.21.76-4.38,1.6-6.6,2.32a97.17,97.17,0,0,1-9.48,2.79c-.62.13-1.14.71-1.76.88-2.54.68-4.91,1.85-7.39,2.68a24.29,24.29,0,0,1-5.2,1.15c-1,.1-1.92.3-2.88.47-.8.14-1.59.35-2.4.45s-1.54-.13-2.18.48c-.08.08-.3,0-.46,0-2.95-.32-5.83.53-8.78.52-2.71,0-5.35-.89-8.07-.52a5.22,5.22,0,0,0-4.34,0,3.86,3.86,0,0,1-1.18,0c-2.36,0-4.73-.09-7.08,0a24.76,24.76,0,0,1-4.06-.51c-1.28-.13-2.63.38-3.83-.45-.16-.11-.47,0-.7,0-.9-.13-1.86.32-2.71-.29s-1.71-.07-2.63-.54a8.71,8.71,0,0,0-3.29-.51,32.68,32.68,0,0,1-5.69-1.2c-1.47-.34-3-.82-4.45-1.16a66.94,66.94,0,0,1-6.92-2.16c-2.76-1-5.5-1.94-8.32-2.74a43.56,43.56,0,0,1-5.86-1.81c-1.79-.8-3.57-1.66-5.3-2.59s-3.92-1.68-5.59-3c-.92-.76-1.94-1.4-2.9-2.12-1.56-1.17-3.09-2.4-4.67-3.56-2-1.45-3.94-3-6-4.25-2.31-1.41-4.17-3.41-6.52-4.76a22.39,22.39,0,0,1-2.31-1.86c-2-1.49-3.92-3-6-4.42a24.16,24.16,0,0,1-5.83-5.76,76.47,76.47,0,0,0-6.56-7.74c-1.1-1.14-2.22-2.33-3.22-3.59-1.64-2.06-3.17-4.2-4.74-6.3-1.22-1.63-2.38-3.29-3.64-4.87-1.52-1.91-3.15-3.73-4.65-5.65a6.83,6.83,0,0,1-.76-2c-.51-1.59-1.47-3-2.08-4.57-1.59-4.09-4.22-7.57-6.52-11.24a7.35,7.35,0,0,1-.77-1.8c-.75-2.68-2.06-5.14-2.85-7.8-.44-1.47-1.05-2.89-1.39-4.38-.43-1.94-1.21-3.79-1.53-5.75,0-.28-.35-.52-.37-.79-.07-1.13.17-2.3-.49-3.35.3-1.86-.54-3.61-.51-5.47a7,7,0,0,0-.65-2.79c-1-2.22-.88-4.77-2.13-6.91-.07-.12,0-.31,0-.46.15-2.48-.79-4.88-.49-7.37,0-.34.22-.88-.46-.91Zm280.68,49.14c-.71,0-.4.59-.47.95-.71,0-.4.58-.48.94-.7,0-.4.59-1,2.12.37-.35.55-.44.54-.51a5.06,5.06,0,0,0-.21-.66c-.08.28-.16.57.22,0,.71,0,.4-.59.47-1,.71,0,.41-.58.48-.94.7,0,.4-.59.47-.95.71,0,.4-.58.47-.94,1-.57,1.25-1.74,1.93-2.55.47-.57.41-1.11.71-2.14l-.28.22.21.21a1.37,1.37,0,0,0,.21-.28s-.09-.09-.42.28A18.42,18.42,0,0,1,315,237c-.19.18-.59.14-1,.22a16.36,16.36,0,0,0,1-4.54c0-1.45.66-2.8.51-4.3s0-3.14-.05-4.72-1.41-2.66-.92-4.17c-1.41-.43-2.77-1.13-3.91-.58a5.36,5.36,0,0,1-3.6.3,12,12,0,0,0-3.13-.36,12.31,12.31,0,0,1-4.62-.82,2.82,2.82,0,0,0-1.94.17,8.82,8.82,0,0,0-3.08,2.23,4.39,4.39,0,0,1-.2,1.58,7.05,7.05,0,0,0-.79,4.16,7.41,7.41,0,0,1-.74,3.48,18.2,18.2,0,0,0-1.13,5.66c-.11,1.13.32,1.46,1.5,1.48,2.11,0,4.23,0,6.35,0a14.08,14.08,0,0,0,.61-1.7c.23-1.08.57-2.13.84-3.19a45.86,45.86,0,0,0,1-5.71,5,5,0,0,1,1.69-3.57c.37,0,.77,0,1.16,0,1.45,0,1.68.15,2.18,1.46s-.09,2.74.66,4c-.9.75-.29,1.77-.46,2.64-.09.44,0,1-.23,1.32-1.19,1.84-.62,3.8-.64,5.75,2.26-.21,4.25.78,6.36.48a2.46,2.46,0,0,1,1.41.54c.17.11.13.56.18.85C313.37,239.66,313.68,240.2,313.61,240.56Zm-4.32,12.29h-12a3.53,3.53,0,0,1-1.57-.19,4.13,4.13,0,0,0-3.15-.15,10.84,10.84,0,0,1-2,.35c-1,.13-1.92-.19-2.91.4a2.55,2.55,0,0,1-2.25-.08c-.78-.48-1.51-.18-2.24-.32s-1.44-.33-2.17-.47c-.22,0-.58-.11-.69,0-.7.8-1.6.37-2.42.45-1.51.16-3.05-.31-4.55.43-.45.23-1.18-.06-1.78-.15-1.4-.21-2.75-.65-4.18-.77-3.27-.28-6.46.73-9.73.5-.84,0-1.73.16-2.29-.77-.08-.13-.54-.23-.6-.16-.68.84-1.71.12-2.39.51-1.61.93-3,.32-4.31-.45-1,.64-1.92,1.37-3,.4-2.45.28-4.94-.54-7.38.42a4.26,4.26,0,0,1-2.32,0,5.59,5.59,0,0,0-3.68,0c-.59.13-1.42.3-1.82,0-.89-.64-1.79-.32-2.68-.42-.61-.07-1.55.13-1.76-.19-.6-.89-1.09.23-1.75-.11a3.64,3.64,0,0,0-3.27.28,15.57,15.57,0,0,0-1.62.63c-.83.56-1.09-.42-1.66-.48-.21,0-.54-.17-.62-.08-.8.84-1.79.3-2.67.4-2.21.25-4.49-.43-6.66.48a1.13,1.13,0,0,1-.92,0c-.89-.77-1.93-.39-2.9-.44-1.25-.06-2.51,0-3.77,0a5.35,5.35,0,0,1-2.89-.46c-.42-.25-1.21-.6-1.4-.43-.48.44-1.13.2-1.46.49a2.52,2.52,0,0,1-2.41.31c-2.21-.49-2.36-.54-4.37.09a9,9,0,0,1-3.35.48,9.09,9.09,0,0,0-1.88,0,3.89,3.89,0,0,0-1.91.49c-1,.81-1.81.23-2.67-.11a2.35,2.35,0,0,1-.56-.39c-.76.31-1.53.91-1.86.72-1.46-.8-3,0-4.52-.5s-3.08-.27-4.63-.21a12.13,12.13,0,0,1-4-.56c-.18-.06-.43-.33-.49-.29-1.07.8-2.27.25-3.4.33a6.57,6.57,0,0,1-3.6-.42,1.19,1.19,0,0,0-1.08.15c-.49.45-1,.21-1.54.3-.88.15-1.75-.14-2.69.39a3.33,3.33,0,0,1-2.73,0,6.59,6.59,0,0,0-2-.36c-.65-.13-1.29-.34-1.94-.45-.28,0-.73-.07-.88.1-.52.61-1.17.24-1.75.37s-1.12.35-1.7.45c-1,.17-1.95-.14-3,.28s-1.76-.34-2.6-.73a1,1,0,0,0-.46,0c-3.56.25-7.15-.53-10.68.45-.63.17-1.44.18-1.45-.88-1.35,0-2.68,0-4,0s-2.83-.38-4,.09c-1.46.6-2.3-.59-3.47-.57-.16,0-.35-.06-.47,0-1,.61-2.13.2-3.09.52a6.2,6.2,0,0,1-4.6,0,1.67,1.67,0,0,0-1.33.13c-.61.42-1,.26-1.66.06s-1.38.44-1.81.2a6.14,6.14,0,0,0-2.91-.41c-.38,0-1,.1-1.12-.1-.63-.78-1.06-.09-1.56.09-.89.32-1.91,1.06-2.65.85-1-.29-2.07-.2-3.06-.57-.48-.18-1.2-.44-1.5-.23-1,.72-2.11.29-3.15.43a5.69,5.69,0,0,0-2.22.35,1.93,1.93,0,0,1-2.53-.5c-.11-.16-.5-.35-.55-.3-1,.88-2.28.06-3.26.68-.39.24-.6.15-1,0-1.28-.37-2.63-1.12-3.93-.68a4.71,4.71,0,0,1-3.89,0,1.53,1.53,0,0,0-1.36,0c-.62.65-1.32.3-2,.42s-1.45.33-2.17.47c-1.23.23-2.47.44-3.88.69.63,1.08,1.16,2.05,1.75,3A46.29,46.29,0,0,1,59,266.15a17.44,17.44,0,0,0,2.3,4.71c.92,1.21,1.91,2.37,2.88,3.54.82,1,1.68,2,2.49,3,.18.22.18.57.35.79,1.73,2.26,3.36,4.6,5,6.87s3.64,4,5.46,6a26.78,26.78,0,0,1,2.81,3.33c.82,1.27,1.87,2.36,2.78,3.54a16.71,16.71,0,0,0,4.34,4.11c2.72,1.72,5.21,3.8,7.77,5.78a88.36,88.36,0,0,0,7,5.45c4,2.5,7.72,5.36,11.47,8.22a46.13,46.13,0,0,0,4.08,2.67c.87.52,1.83.91,2.75,1.35,3,1.45,6,3.07,9.45,3.4,1.9,1.17,4.24,1,6.18,2.22,1.34.81,3.07.94,4.53,1.59A59,59,0,0,0,148,335a40.77,40.77,0,0,0,4.3,1,31.18,31.18,0,0,1,4,.54c2.44.81,5,.73,7.47,1.32,1.45.34,3.06-.2,4.52.52H178.7c1.44-.71,2.85-.25,4.34-.06a93.45,93.45,0,0,0,9.48.51c2.46.05,4.87-.71,7.36-.48.55.06,1.12-.33,1.7-.43a12,12,0,0,0,1.82-.17,18.29,18.29,0,0,1,3.69-.74,18.87,18.87,0,0,0,4.29-1.08c2.39-.88,4.75-1.84,7.13-2.74,3.09-1.17,6.37-1.7,9.45-2.86,2.93-1.11,6.06-1.67,8.81-3.24,1.9-.12,3.1-1.62,4.7-2.35a46.74,46.74,0,0,0,5.55-3.14c2.62-1.63,5.3-3.15,8-4.69,3.17-1.83,6.57-3.28,9.54-5.47,2.55-1.88,5.29-3.54,7.47-5.89.94-1,1.72-2.16,2.69-3.13a77.66,77.66,0,0,0,6.21-7.11,55.62,55.62,0,0,1,5.5-6,58.88,58.88,0,0,0,7-8.46,64.16,64.16,0,0,0,4.65-7.28c1-1.94,2.4-3.72,3.53-5.63,1.38-2.33,2.75-4.67,4-7.08C306.87,258.28,308,255.61,309.29,252.85Zm-128.35-15.6a30.34,30.34,0,0,0,5-.37,9.86,9.86,0,0,0,3.36-1.06,19,19,0,0,1,1.8-1.37c1.68-.76,2.37-2.35,2.88-3.81,1-2.78,2.06-5.59,2-8.64a2.44,2.44,0,0,1,.41-1,5.28,5.28,0,0,0,.53-2.62,7.65,7.65,0,0,1,.16-2.3,13.55,13.55,0,0,0,.79-4.64c-.07-1.25-.35-2.65.1-3.73a6.63,6.63,0,0,0-.17-5.06c-.85-2.3-2.33-4.17-5-4.67-.78-1-2.16.1-3-.86-.06-.07-.61.38-1,.42a2.19,2.19,0,0,1-1.33-.15,2.89,2.89,0,0,0-2.67-.2,4.11,4.11,0,0,1-2.22.34,4.19,4.19,0,0,0-1.92.51c-3,1.45-5.3,3.53-6.21,7-.58,2.19-1.25,4.36-1.85,6.55a38.37,38.37,0,0,0-1.78,9.88c0,.32.13.78,0,.92-.8.72-.3,1.63-.45,2.43s-.36,1.6-.46,2.41a11.06,11.06,0,0,0,.5,4.75c.68,2.09,1.77,3.77,4.22,4.46A19.31,19.31,0,0,0,180.94,237.25ZM60.79,199.69c.27,3.37-.66,6.71-.51,10.14.1,2.43.5,4.95-.42,7.35.28,2.94-.41,5.84-.46,8.77,0,3.22,0,6.45,0,9.67v3.52c1.27,0,2.53.35,3.42-.08,1.17-.57,2.27-.26,3.38-.37s2.31-.7,3.59-.52,2.6-.5,3.91-.76c1.61-.31,2.72-1.42,4.06-2.18a10.65,10.65,0,0,0,2.87-2.77c.5-.62.36-1.28.73-1.85a7.91,7.91,0,0,0,1.2-5.16c0-.39-.17-1,0-1.15.65-.59.34-1.3.45-2a18.54,18.54,0,0,0,.44-2.17c0-2.67.07-5.34,0-8s.22-5.37-.41-8.07a7.08,7.08,0,0,0-2.84-4.63l-1.29-.89c-1.8,1.58-1.78,1.58-2.55,4a7.84,7.84,0,0,1-.66,1.22c-.72-1.9-1-3.83-2.45-5.42-1.38.19-2.79.48-4.22.56-1.8.09-3.62.06-5.43,0A4.42,4.42,0,0,0,60.79,199.69ZM208.45,199c-.25,1.18-.48,2.2-.68,3.22a21.61,21.61,0,0,0-.46,2.63c-.08,1,0,2.05,0,3.07a1.5,1.5,0,0,1-.14.87c-1,1.17-.74,2.58-.8,3.93a3.55,3.55,0,0,1-.29,1.53,6.4,6.4,0,0,0-.62,2.8c0,2.74-.85,5.29-1.46,7.9-.14.57-.57,1-.48,1.7a5.45,5.45,0,0,1-.4,2.65c-.31.81-.15,1.73-.44,2.65a28.85,28.85,0,0,0-.67,5.23h8.43a4.29,4.29,0,0,0,.63-1.31,16.16,16.16,0,0,1,.44-3.13,21.19,21.19,0,0,0,.45-3.33,46.28,46.28,0,0,1,1-5.5c.45-1.74.38-1.75,2-1.78h1.35c.46.78,1.3,1.58,1.37,2.44a24.12,24.12,0,0,1-.05,7.05,35.93,35.93,0,0,0-.3,5.63c1.51,0,2.86.08,4.19,0s2.5-.39,3.57-.56c.9-1.75.66-3.53.69-5.29,0-.15-.06-.35,0-.46,1-1.55-.08-3.48.91-5.06a1.42,1.42,0,0,0,0-1.14c-.68-1.46-.57-3.19-1.61-4.54a1.92,1.92,0,0,1-.18-1.53c.09-.33.68-.5,1-.77s.75-.5.78-.78c.15-1.54,1.21-2.66,1.74-4a7.76,7.76,0,0,0,.63-2.33,40.7,40.7,0,0,0,0-5.18,4.93,4.93,0,0,0-.84-2.46c-1.77-2.38-4.51-3.19-7.21-3.57-1.6-.23-3.33-.85-5-.13-.28.12-.71-.13-1.07-.22-.93-.22-2-.86-2.75-.6A14.56,14.56,0,0,1,208.45,199Zm41.68,37.06a25.52,25.52,0,0,0,3.66-1.67,10.38,10.38,0,0,0,3.5-4.19,32.78,32.78,0,0,0,1.94-7c.28-1.32,0-2.69.44-4.07.35-1.07,0-2.34.09-3.52s.37-2.38.44-3.58c.07-1.41-.07-2.84,0-4.25a12.05,12.05,0,0,0-1.74-6.61,3.87,3.87,0,0,0-2.64-2.18c-1.88-.46-3.62-1.24-5.81-.62-2.39.67-5,.48-7.57.57a5,5,0,0,0-3,.67,13.65,13.65,0,0,1-.23,2.08,25.5,25.5,0,0,0-1.28,7,5.52,5.52,0,0,1-.3,1.76,34.13,34.13,0,0,0-1.08,5.45c-.25,1.73-.33,3.49-.5,5.23a.9.9,0,0,1-.16.41,7.36,7.36,0,0,0-.78,4.4,4.15,4.15,0,0,1,0,1.41,17.94,17.94,0,0,0-1,6.7,10.65,10.65,0,0,1-.42,2.1c2.26,1.58,4.62-.07,7,.1,1-1.3,1.95-2.55,2.85-3.86.38-.55.73-.95,1.45-.86a11,11,0,0,0,1.15,0ZM131.51,208.37a4.58,4.58,0,0,0,.66-3,11.3,11.3,0,0,0-.87-4.13c-1.36-3.21-1.41-3.19-4.32-4.61-.2-.1-.38-.23-.58-.32a4.79,4.79,0,0,0-2.58-.65c-1,.11-2.14-.15-3.11.49-1-.94-1.93-.07-2.91,0a7.81,7.81,0,0,0-5.71,2.83,6.88,6.88,0,0,0-1.65,2.4,14.16,14.16,0,0,0-1,6c.11,1.09-.22,2.28.11,3.27a12.07,12.07,0,0,0,4.7,6.39,20.88,20.88,0,0,1,4.53,3.36,3.29,3.29,0,0,1,1.08,2.16c0,1,0,2,0,3.07a2,2,0,0,1-1,1.78c-.73.5-1.28.14-1.94-.35v-4.78a24.14,24.14,0,0,0-2.48-.53,8.29,8.29,0,0,1-2.67-.43,2.06,2.06,0,0,0-2,.24,7.57,7.57,0,0,1-2.22.76c0,2,0,3.9,0,5.79a4,4,0,0,0,.53,2.35c1.6,1.82,3.23,3.75,6,3.57a2.18,2.18,0,0,1,1.55.27c.37.26,1.26.37,1.51.12.64-.61,1.32-.36,2-.39,1-.05,2,0,3.07,0a5.28,5.28,0,0,0,4.82-2.64,15.06,15.06,0,0,0,1.56-3.14c.63-1.83,1.48-3.67,1.1-5.69a17.06,17.06,0,0,0-1-3.84,14.26,14.26,0,0,0-2.1-2.67,21.6,21.6,0,0,0-5.36-4.2,4.67,4.67,0,0,1-2.45-4.27,12.51,12.51,0,0,1,1.15-4.24c2.18.05,2.18.05,2.2,2v3.09Zm23.8,0c2.45.2,4.73.44,7,.55,3,.14,2.9,0,2.93-2.92,0-1.68-.46-2.86-2.2-3.28-.09,0-.13-.25-.21-.44l.86-1.59-.36-.84a5.86,5.86,0,0,0-3.28-3.2,17.53,17.53,0,0,0-6-1.45c-1.39,0-2.71.38-4.06.45a9.89,9.89,0,0,0-5.14,1.84,9.78,9.78,0,0,0-3.24,4.78,27.5,27.5,0,0,0-1.5,5.77,34.74,34.74,0,0,0-.87,5.29c0,.28-.2.55-.25.83-.24,1.25-.46,2.49-.69,3.74.76.57.15,1.27-.05,1.7a6.34,6.34,0,0,0-.41,2.9,38.11,38.11,0,0,0,.4,6.9,7.19,7.19,0,0,0,4.64,5.52,31.85,31.85,0,0,0,6.45.92c.55.05,1.13-.41,1.69-.42a10.29,10.29,0,0,0,6.37-2.86,10.58,10.58,0,0,0,4.07-6.8c1-.56,0-1.86.88-2.4a4,4,0,0,0-3-.73,6,6,0,0,1-3.34-.47,6.08,6.08,0,0,1-3,.51,7.12,7.12,0,0,1-2.51,5c-.94.79-2,.41-2.85.08a2.24,2.24,0,0,1-1.35-2.19c-.13-1.87.62-3.64.49-5.47a11.66,11.66,0,0,1,.64-3.53c.06-.28.29-.53.32-.8.18-1.67.33-3.33.48-5,0-.23-.06-.51,0-.7a9.66,9.66,0,0,0,1-4.1,3.93,3.93,0,0,1,.72-1.81,9.87,9.87,0,0,1,1.32-1.35c2.65-.17,3.57,1.38,3.61,3.2A13.71,13.71,0,0,0,155.31,208.34Zm132.31-4.16c0-1-.29-2,.06-2.56.86-1.44.17-2.9.4-4.33a1,1,0,0,0-.91-1.12c-1-.09-2.22-.36-3,.06-1.17.61-2.27.21-3.39.38a31,31,0,0,1-3.58.46c-2,.07-4.09.05-6.14,0-.74,0-1.24.27-1.36,1-.22,1.26-.34,2.54-.48,3.81-.16,1.43.36,2.94-.48,4.29.35,2.49-.63,4.88-.49,7.36a7.16,7.16,0,0,1-.42,3.59,4.75,4.75,0,0,0-.47,2.39c.31,3-.46,5.93-1.08,8.79-.46,2.1-.17,4.09-.41,6.43.6-.36.89-.56,1.2-.71a3.45,3.45,0,0,1,3.61,0,5,5,0,0,0,1.68.51,27.16,27.16,0,0,0,6.94.92,4.64,4.64,0,0,1,1.3.27c1.48.44,1.61.24,2.47-1.06.46-.69,0-1.42.46-2,1.05-1.16.77-2.5.79-3.73-1.53-.23-2.86-.52-4.21-.61s-3,0-4.48,0c-.06,0-.12-.09-.28-.21,0-.77,0-1.63,0-2.48a2,2,0,0,0-1-2.22,4.54,4.54,0,0,0,1.73-2.61,1.75,1.75,0,0,1,2.16-1.48,33.51,33.51,0,0,0,4,0,1.07,1.07,0,0,0,1.14-1.15c0-.63,0-1.26,0-1.89,0-1.13-.23-2.3.54-3.26l-1.33-1.33h-5.27a18.42,18.42,0,0,1,.37-6c.21-1.15.4-1.48,1.54-1.49C282,204.16,284.71,204.18,287.62,204.18Zm27.85,10.89c1.22-2.48,2.49-4.82,2.4-7.62-.05-1.57,0-3.14,0-4.72a2.6,2.6,0,0,0-.19-1.32c-1.34-2-2.28-4.52-5.23-4.79-.66-.85-1.61-.29-2.4-.49a6.26,6.26,0,0,0-2.4-.47,21.52,21.52,0,0,1-4.28.44c-2.11-.14-4.1.5-6.17.56-.36,0-.74.61-1,1-.11.15,0,.46,0,.69a42.64,42.64,0,0,1-.49,7.82c-.06.58-.35,1.12-.44,1.7s0,1.26-.13,1.84a17.14,17.14,0,0,0-.83,4.37c0,.39.16.91,0,1.15-.9,1.15-.21,2.36-.57,3.83,1.77-1.51,3.36-2.37,5.37-2.12,2.64.34,5.2-.58,7.82-.47,1-.75,2.32-.1,3.29-.59A10.4,10.4,0,0,1,315.47,215.07Zm-41-26.89c1.55-.19,3-.46,4.4-.52,2.12-.08,4.24,0,6.37,0h6.09v-1.42h-1.63c-3.78,0-7.55,0-11.33,0-.69,0-1.33-.09-1.58-.71a7.67,7.67,0,0,1-.51-2.37c-.23-4.81.41-9.65-.47-14.44-.19-1,.33-2.21-.85-3-.13-.08-.09-.42-.12-.65a16.63,16.63,0,0,0-.51-3.33c-.86-2.4-1.49-5-3.4-6.63h-6.86c-1.13,3.69-.27,7.36-.63,11-.78,1.35-2.34,1.41-3.66,1.94.7.09,1.32.41,2-.16a1,1,0,0,1,1.44.24,1.13,1.13,0,0,1,.13,1.46,1.89,1.89,0,0,0-.29.82c0,3.36,0,6.71,0,10.1a12.59,12.59,0,0,1,2.07,0c.52.09.91-.81,1.56-.08.17.19,1.06-.31,1.63-.41.38-.06.94-.14,1.13.06.6.65,1.32.34,2,.39s1.35,0,2,0a32.92,32.92,0,0,0,0,4A26.25,26.25,0,0,0,274.49,188.18Zm-181,8.91c-.28,2.19-.8,4.2-.59,6.28,0,.16.07.37,0,.46-.89,1-.29,2.24-.46,3.35s-.34,2.23-.47,3.34a21.3,21.3,0,0,1-.39,3.6,23.22,23.22,0,0,0-.54,5.67c-.07,3.7-.1,7.39,0,11.08,0,1.27-.61,2.35-.52,3.58.08,1.05.05,1,1.43.92.63-.05,1.26,0,1.89,0,1.74,0,3.51.21,5.15-.66-.14-.63-.52-1.33-.38-1.89.26-1,.12-2.09.52-2.83.52-.95,0-1.91.42-2.66a5.62,5.62,0,0,0,.42-2.89c0-1.26,0-2.52,0-3.77s.21-2.3-.46-3.34c.77-.86.11-2,.54-2.84.54-1,0-2.13.48-2.85s-.07-1.28.14-1.68c.49-.92-.15-2,.33-2.69.69-1,.26-1.95.38-2.91.08-.7-.21-1.52.06-2.1.81-1.73.27-3.44.37-5.16Zm170.38-54.81c1.34,0,2.37.06,3.38,0a7.55,7.55,0,0,0,4.44-1.81,8.45,8.45,0,0,0,2.62-6c.19-1.95-.1-3.94.08-5.9a13.56,13.56,0,0,0-1-5.73,6.9,6.9,0,0,0-5.9-4.62,31.72,31.72,0,0,0-4.77,0,10,10,0,0,0-.41,1.93c0,.61.22,1.22.23,1.84,0,1.42,0,2.83,0,4.25.14,4.42.27,8.84.5,13.26A13.2,13.2,0,0,0,263.91,142.28Zm-221,66.42a3.93,3.93,0,0,0,.51,2.83c.24.38.17.49,0,.87-.21.69-.47,1.62.18,2.18a2.31,2.31,0,0,1,.65,2.11,2.51,2.51,0,0,0,.79,2.3,2.54,2.54,0,0,1,.59,1.84c-.09,2,.8,3.76,1.3,5.62a28.07,28.07,0,0,0,1.61,4.76c1,2.11,1.06,4.59,2.54,6.51a1.4,1.4,0,0,1,.25.6c.57,2.74,2.3,5,2.93,7.76a.4.4,0,0,0,.17.17c1.24.76.52,1.69.15,2.53l2.68,2.07H61c-.78-1.44-1.5-2.71-2.16-4-1.09-2.14-2.12-4.32-3.24-6.45a8.33,8.33,0,0,0-1.45-2,8.66,8.66,0,0,1-1.84-3.26,6.22,6.22,0,0,0-.67-1.61c-2.33-3.17-3.25-6.84-4.1-10.59-.43-1.92-1.14-3.76-.9-5.76-.8-.58-.38-1.43-.46-2.17a18.62,18.62,0,0,0-.86-3.9c-.71-2.1-1.82-4.11-1.51-6.46.07-.49-.4-.9-.42-1.22-.09-1.81-.8-3.52-.93-5.28-.11-1.37-.72-2.57-.64-4-1,.26-1.42.65-1.32,1.51.18,1.59-.27,3.19.4,4.79a2.45,2.45,0,0,1-.35,2.59c.9,1.18.14,2.57.5,3.81Zm222.44,27.82c1.93,1.18,3.84.57,5.7.65C267.17,235.76,267.17,235.76,265.33,236.52ZM150.72,138.68l-1.62-.89.27,2Zm74.36-28.09a2.74,2.74,0,0,1,.18-.67,4,4,0,0,1,.66-.71C224.28,109.18,225,110,225.08,110.59Zm-70,28,.62-.25a1.27,1.27,0,0,0-.41-.3c-.11,0-.25.09-.38.15ZM323.84,179.2l-.31.17c.05,0,.12.16.16.15a1.77,1.77,0,0,0,.31-.15Zm-209.1,6.38.17.17a1.15,1.15,0,0,0,.15-.32s-.09-.1-.15-.15Z"/><path class="cls-1" d="M153,12.33c.16.33.45.65.45,1a27.66,27.66,0,0,0,.95,5.73,1.48,1.48,0,0,1-.07,1.13,1.21,1.21,0,0,0,0,1.83c.18.22,0,.86-.2,1.23a20.62,20.62,0,0,1-1.16,1.84H150.4a4,4,0,0,1-1.71-3.92,9.3,9.3,0,0,0,0-2.11c-.25-1.79.44-3.47.51-5.22,0-.74.54-1,1.27-1,.38,0,1,.33,1.07-.46Z"/><path class="cls-1" d="M72.15,141.27c0-1.35-.06-2.45,0-3.55.11-1.67.37-3.33.44-5a40.58,40.58,0,0,1,.1-5.18,33.72,33.72,0,0,0,.41-3.59,17,17,0,0,1,.48-3.35c.59-2.1,1.4-4.14,2.08-6.22a23.58,23.58,0,0,1,3.44-6.12,12.37,12.37,0,0,1,4.4-3.52c1.79-1,3.53-2.11,5.63-2.37a7.19,7.19,0,0,1,1.08-.23,12.41,12.41,0,0,0,4.82-.92,1.79,1.79,0,0,1,.7,0c2.67,0,5.36-.14,8,0a29.26,29.26,0,0,1,5.49,1,18.86,18.86,0,0,1,4.55,1.56c5.15,2.91,7.6,6.06,9.84,12.14.63,1.72,1.48,3.4,1.43,5.31.72.51.4,1.27.48,1.93.15,1.36.35,2.71.45,4.06,0,.6.1,1.39-.23,1.76a5.3,5.3,0,0,1-1.91,1,1.64,1.64,0,0,1-.7,0c-1.06-.06-2-.86-3.21-.09-.8.49-2.15.09-3.25.09s-2.37,0-3.55,0-2.49.73-3.82.46a15.84,15.84,0,0,1-2.39-.5,1.2,1.2,0,0,1-.79-1.28c.15-2.44-.75-4.75-1-7.16-.17-2-2.87-4.15-5-4.26a8.62,8.62,0,0,0-3,.26c-1.52.47-2.88,1.26-2.83,3.2a15.73,15.73,0,0,0-1.45,7.45c0,1.9-.35,3.8-.42,5.71s0,3.78,0,5.66a6.15,6.15,0,0,1-.58,2.12,1.16,1.16,0,0,1-.89.58,17,17,0,0,0-3.12.47,3.48,3.48,0,0,1-2.87-.43c-2.3.2-4.65-.47-6.89.47-.34.14-.88.51-1,.44-.88-1-2.14,0-3.07-.64C73.46,142.13,72.83,141.72,72.15,141.27Z"/><path class="cls-1" d="M142.13,96.59V82.46c.82-.65,1.55-1.31,2.36-1.87a3.34,3.34,0,0,1,1.6-.66c2.75-.06,5.5-.1,8.25,0,.6,0,1.23.46,1.93.42s1.41,0,2.16,0c.21.28.6.57.64.89.19,2,.74,3.92.5,5.93s.81,3.92.47,5.94a6.37,6.37,0,0,1-.18,1.33c-1,2.37-.49,3-4.08,2.93-2.36-.05-4.72,0-7.08,0C146.57,97.3,144.38,97.84,142.13,96.59Z"/><path class="cls-1" d="M154.89,56.38V47.94c1.32-.43,2.7-.6,4-1,2-.64,4.11-1.09,6.2-.09a3,3,0,0,0,1.17,0c1.89,0,3.78,0,5.67,0a5,5,0,0,0,2.66-.42c.74-.42,1.86.39,2.62-.48,1.47.23,2.83-.6,4.27-.5,1.28.1,2.54.37,3.82.44s2.63,0,4.21,0c-.94,1.89-2.81,2.28-3.94,3.49s-2.57,2.19-3,4a45,45,0,0,0-5.47,1c-.89.3-1.91-.07-2.88.46-.75.42-1.86-.38-2.62.5-2-1-4.12-.17-6.16-.46-.65-.09-1.28-.33-1.93-.46a9,9,0,0,0-3.81.5C158.18,55.26,156.67,55.82,154.89,56.38Z"/><path class="cls-1" d="M123.65,59.11c.06-.29,0-.79.18-.84,2.66-1,5-2.7,7.71-3.58,1.39-.45,3-.33,4.18-1.25,2.18,0,4.15-1,6.25-1.41a1.77,1.77,0,0,1,.49.09c.41,2.55-.49,5.21.78,7.74a18.79,18.79,0,0,1-3.53,1.1,23.5,23.5,0,0,0-9,2.86c-1.41.78-2,.74-2.63-.54A4.88,4.88,0,0,0,125.54,61l-.47-.47-.47-.47-.47-.47Z"/><path class="cls-1" d="M172.52,63.7l2.61,3.2a15.8,15.8,0,0,1-4.5,4.61,42.27,42.27,0,0,0-3.83,3.28c-.39.33-.9.86-1.28.8a4.09,4.09,0,0,1-1.93-.93,7.2,7.2,0,0,1-1.5-2c-.25-.46-.5-.93.45-1.38a18.36,18.36,0,0,0,3.19-2.53c1.41-1.13,2.83-2.23,4.27-3.32C170.71,64.92,171.46,64.43,172.52,63.7Z"/><path class="cls-1" d="M192.42,83.21l1.64,1.73a3.39,3.39,0,0,0,0,.63,2.73,2.73,0,0,1-.72,2.29,3.76,3.76,0,0,1-1.92,1,5.59,5.59,0,0,1-2.34,0,8.32,8.32,0,0,0-4.82,0,4.17,4.17,0,0,1-1.41,0,1.12,1.12,0,0,1-1.09-1.21c0-1,0-2,0-3.07s.37-1.36,1.39-1.37C186.24,83.2,189.31,83.21,192.42,83.21Z"/><path class="cls-1" d="M174.45,84.16l1.06,1c.82,1.23-.32,4-1.78,4.13-1.73.21-3.46.38-5.2.47-1.44.07-2.78-.75-4.28-.5-.24,0-.7-.51-.87-.88a2.37,2.37,0,0,1,0-1.16c.1-.74-.41-1.71.32-2.18a5.62,5.62,0,0,1,2.65-.89C169.05,84.08,171.78,84.16,174.45,84.16Z"/><path class="cls-1" d="M180.86,63l-3.25-2.55c.67-2.26,2.86-3,4.27-4.5a22.62,22.62,0,0,1,5.38-3.71c.46.57.91,1.1,1.33,1.65s.79,1.09,1.27,1.77C186.78,58,184.35,61.06,180.86,63Z"/><path class="cls-1" d="M212.92,82.86v4.6c-3.33,0-6.62,0-9.9,0a2.26,2.26,0,0,1-2.34-2.35c0-.31,0-.62,0-.94,0-1,.37-1.4,1.35-1.41,2.28,0,4.56,0,6.84,0,.81,0,1.65.28,2.46-.37C211.57,82.16,212.37,82.67,212.92,82.86Z"/><path class="cls-1" d="M153.26,59.51,151.66,61h-2.27c-1.23-1.24-2.4-2.5-1.2-4.49.21-.34,0-.92,0-1.39,0-1.73,0-3.45,0-5.18a2.19,2.19,0,0,1,.16-1.1c.64-1,1.69-.46,2.56-.59.7-.1,1.41.18,1.47.78s.74,1.31.06,2c.22,1.73-.36,3.49.42,5.24A11.19,11.19,0,0,1,153.26,59.51Z"/><path class="cls-1" d="M153.42,41.57H148.7c0-3.51,0-7,0-10.4,0-1,.39-1.31,1.41-1.35.23,0,.47,0,.71,0,1.95,0,1.93,0,2.14,2.06,0,.34.4.66.4,1s-.39.65-.4,1a12,12,0,0,0,.37,3.13A21.08,21.08,0,0,1,153.42,41.57Z"/><path class="cls-1" d="M152.87,72.64a4,4,0,0,1-1.25.62c-1,.08-2,0-3.06,0a3.15,3.15,0,0,1-.81-2.67c0-2.2,0-4.39,0-6.55,1.56-1.18,1.56-1.18,4-1.16L152.87,64Z"/><path class="cls-1" d="M125.54,61c-.16.64.29,1,.65,1.38a1,1,0,0,1-.07,1.59c-.92.77-1.86,1.52-2.78,2.27a26.92,26.92,0,0,1-6.4-6.79c.88-.88,1.79-1.82,2.73-2.72.76-.72,1.65-.67,2,.28a4.64,4.64,0,0,0,1.93,2.1l.48.48.47.47.47.47Z"/><path class="cls-1" d="M134.85,77.51a16.94,16.94,0,0,1-5-4,4.58,4.58,0,0,1-1.39-3.91,10.87,10.87,0,0,1,1.82-1.25,2.5,2.5,0,0,1,1.71-.18,3.47,3.47,0,0,1,1.78,1.31,17.27,17.27,0,0,0,2.38,2.79,8.66,8.66,0,0,1,1,1.47,1.63,1.63,0,0,1-.38,2.25C136.1,76.54,135.44,77,134.85,77.51Z"/><path class="cls-1" d="M126.07,91.06V86.71A3.54,3.54,0,0,1,129,85.56c1.33,0,2.67,0,4,0s1.5.33,1.54,1.46a13.1,13.1,0,0,1,0,1.88c-.08.66.39,1.49-.36,2a4.73,4.73,0,0,1-2,.81,37,37,0,0,1-4.71,0A4.22,4.22,0,0,1,126.07,91.06Z"/><path class="cls-1" d="M198.41,43a8.31,8.31,0,0,1,2.72,3.71c-1.84,1.49-3.69,3-5.61,4.52a3.19,3.19,0,0,1-1.76.67c-.42,0-.92-.43-1.28-.79a7.07,7.07,0,0,1-.84-1.28l-.87-1.44a21.73,21.73,0,0,1,3.59-2.92c1.18-.61,1.71-2,3.06-2.25C197.78,43.16,198.14,43.07,198.41,43Z"/><path class="cls-1" d="M131.91,107.8l-3.68-2.69c2-2.61,3.85-5.15,6.79-6.92.8.77,1.59,1.5,2.33,2.27s.69,1.18,0,1.94C135.53,104.19,133.74,106,131.91,107.8Z"/><path class="cls-1" d="M107.59,87.21c0,1.07,0,2.16,0,3.25a1.14,1.14,0,0,1-1.27,1.25c-1.88,0-3.76,0-5.64,0s-2.55-1.29-2.11-3.15a1.49,1.49,0,0,1,.88-1.27C101.44,86.28,105.61,86.13,107.59,87.21Z"/><path class="cls-1" d="M120.65,86.6c.76,1.43,1.46,2.78,1,4.56-2.66,1-5.46.67-8.26,0a7.42,7.42,0,0,1,0-4.61Z"/><path class="cls-1" d="M167.11,104c-2.81-1.3-5.68-1.91-7.4-4.39.45-.66.91-1.39,1.42-2.09.9-1.21,1.43-1.27,2.91-.6a27.63,27.63,0,0,1,4.55,3.17,1,1,0,0,1,.2,1.59C168.19,102.42,167.64,103.22,167.11,104Z"/><path class="cls-1" d="M116.19,53.51l-2.85,2.86-4.8-4.49V49.83c.56-.54,1.17-1.14,1.8-1.73a1,1,0,0,1,1.59,0c1.28,1.26,2.59,2.5,3.78,3.83A3.93,3.93,0,0,1,116.19,53.51Z"/><path class="cls-1" d="M263,277.93c-1.37,1.14-2.7,2.17-3.95,3.29a2.58,2.58,0,0,1-2.44.87,7.86,7.86,0,0,1-2.42-1.53c-.5-.43-.74-1.14-1.2-1.61s-.15-1.34-.45-2.17c-.48.31-1,.46-1.15.78-.61,1.13-1.46,2.08-2.14,3.14-.53.82-.88,1.86-1.43,2.69-.75,1.1-1.14,2.4-2,3.44-.05.06-.17.13-.16.17.24,1.13-.7,1.74-1.15,2.56s-.89,1.68-1.33,2.52-1,1.78-1.4,2.72a33.54,33.54,0,0,1-2,3.9,15.05,15.05,0,0,0-1.71,2.82,12.45,12.45,0,0,1-1.86,3,30.89,30.89,0,0,0-1.5,2.92c-.95,1.89-1.95,3.76-2.8,5.69a2.12,2.12,0,0,1-1.17,1.18c-.92.44-2,.61-2.69,1.57-.48.66-2,.35-2.68-.32a1.69,1.69,0,0,1-.18-2.42c1.3-2.06,2.59-4.12,3.84-6.21,1.14-1.88,2.16-3.85,3.39-5.67.5-.74.23-1.91,1.3-2.3.33-1.74,1.53-3,2.4-4.44s1.74-2.9,2.61-4.35a35.07,35.07,0,0,0,2.77-4.76,21.69,21.69,0,0,1,2.65-4.58,6,6,0,0,0,1.14-1.85c.22-.73,1.21-1.2,1.74-1.88.4-.5.51-1.24.94-1.71s1.21-.61.91-1.48c1-1.33,2-2.66,3-4a2.76,2.76,0,0,0,.85-1.56c.06-.72,1.64-1.06,2.7-.75.57.17,1.15.29,1.67.42l1.5,1.34c-.44,2.29-.83,4.37-1.27,6.67a28.61,28.61,0,0,0,5.5-4.29,10.62,10.62,0,0,1,2.13-1.67c.59-.41,1.39-.51,1.52-1.48,0-.27.73-.67,1.08-.63,1.3.14,2-1.34,3.41-1.05,1.65.33,2.34,1.25,1.55,2.77-1.48,2.86-3,5.69-4.4,8.57-.83,1.7-1.41,3.52-2.24,5.22a27.21,27.21,0,0,1-2.58,4.85,6.76,6.76,0,0,0-1,2.4c-.41,1.58-1.28,2.94-1.79,4.47a13,13,0,0,0-.83,2.74c-.12,1-.86,2-1.08,3.07s-1.16,2-1.45,3.2c-.11.43.51,1-.28,1.41-.47.27-.6,1.13-.91,1.7s-.66,1-.93,1.51-.33,1.27-.73,1.56a3.16,3.16,0,0,0-1,2.18,2.39,2.39,0,0,1-1.58,1.94,2.87,2.87,0,0,1-2.78-.28,16.07,16.07,0,0,1-1.36-1,35.39,35.39,0,0,1,1.84-4.27c.48-.8.49-2,1.66-2.4.3-.11.36-.9.52-1.39.47-1.47,1.51-2.65,2.06-4.11,1.09-2.85,2.4-5.61,3.31-8.55a26,26,0,0,1,2-4.6,43.55,43.55,0,0,0,2.23-5.22,10.36,10.36,0,0,1,.58-.94C262.41,280.58,263.17,279.4,263,277.93Z"/><path class="cls-1" d="M222.42,278.46a31,31,0,0,0,5.33-.83c2.36-.41,4.62-1.56,7.44-1.05a5.77,5.77,0,0,0,.36.51c1,1.19.8,1.74-.7,2.23-.27.08-.51.31-.78.37-.73.15-1.47.24-2.21.35.11,1.07-1,.83-1.42,1.1a9.54,9.54,0,0,1-3.34,1.05,39.12,39.12,0,0,0-6.26,1.41,4.15,4.15,0,0,0-2.58,3.52c-.23,1.58-1.21,2.87-1.27,4.46-.12,2.82-2.16,4.94-2.83,7.56-.26,1-.88,1.91-.73,3-1.13.8-1.12,2.22-1.72,3.31a6.6,6.6,0,0,0-.87,5.57,1.58,1.58,0,0,1-.44,1.28,18.45,18.45,0,0,1-3.18,3.13,12.1,12.1,0,0,1-4,1.59c-.54.12-1.43-.5-1.85-1-.28-.34,0-1.12,0-1.71,0-.76,1-.83,1.16-1.36.28-.85.79-.94,1.54-1.08.53-.1.58-1.1,1.34-1.15-.22-1.28.93-2.12,1-3.38s1-2.25,1.48-3.37a12.84,12.84,0,0,0,1.12-2.6,7.38,7.38,0,0,0-.34-2.36c1.83-1.16,1.81-3.65,3.29-5.25-.41-.94.84-1.75.19-2.75-.1-.16.21-.59.31-.91.42-1.32.83-2.64,1.33-4.19l-1.35-1c.05-1.31.24-2.16,1.69-2.3,1.09-.12,1.35-1.45,2.11-2.11-.14-1.74,1.69-2.59,1.89-4.18,1.31-1.11,1.47-2.86,2.34-4.23a35.93,35.93,0,0,0,2.69-4.08c.24-.54.85-.91,1.34-1.4.77.13,1.55-.19,2.39.4.55.38,1.4-.11,2.13-.35,1.33-.43,2.75-.47,4.1-.94a21.61,21.61,0,0,1,3.8-.54c.43-.06.82-.36,1.25-.4,1.12-.1,2.14-.8,3.33-.55.53.12,1-.25,1.47-.37a4.82,4.82,0,0,1,2.21-.18,8.09,8.09,0,0,0,3.55-.42c.67-.17,1.41,0,2-.43.74.74,1.46-.25,2.22,0a1.37,1.37,0,0,0,1.43-.53,1.6,1.6,0,0,1,1-.38,15.88,15.88,0,0,0,2.59-.06c.76-.17,1.4-.94,2.15-1a36.48,36.48,0,0,0,4.52-1.28c1.71-.44,3.45-.7,5.14-1.28a8.64,8.64,0,0,1,2.61-.05c.3.51.62,1.07.95,1.62a5.19,5.19,0,0,1-2.36,1.19c-1.88.64-4,.59-5.68,1.67-.66.42-1.4.16-2.15.54-1.09.53-2.5.4-3.77.57a3.92,3.92,0,0,0-1.09.23c-.79.36-1.57,1.11-2.34,1.1-1,0-1.9.57-2.88.55s-1.67.8-2.64.48c-2,.84-4.24.61-6.27,1.4a3.8,3.8,0,0,1-1.17,0,6.1,6.1,0,0,0-2.67.41c-.69.32-1.57.14-2.39.48a19.91,19.91,0,0,1-4.08,1c-2,.35-4,1-6,1.55a5.21,5.21,0,0,0-4.12,4,24.45,24.45,0,0,1-1.38,3.53v-.1a1.44,1.44,0,0,0-.36.15s0,.18.08.28A.81.81,0,0,0,222.42,278.46Z"/><path class="cls-1" d="M192.66,278.29a11.2,11.2,0,0,0-2.86.59c-1.42.76-2.88.42-4.31.39-2.32,0-4.8-2.57-4.63-4.65a4.52,4.52,0,0,1,.83-2.45c.59-.69.42-1.81,1.57-2.22a4.67,4.67,0,0,0,2.24-1.83c.55-.88,1.62-1,2.06-1.92,1.54.18,2.05-1.38,3.23-1.89a13.19,13.19,0,0,1,6.21-1.49,16.49,16.49,0,0,1,7.45,2.51c.89.57.88,1.55,1.27,2.33.13.26-.26,1-.6,1.25-2.18,1.76-3.21,4.33-4.6,6.62a12.78,12.78,0,0,0-1.6,3.55c-.31,1.32-1.28,2.17-1.62,3.37-1.65,1.22-1.87,3.39-3.24,4.8-.06,1.1-1.22,1.44-1.61,2.36a19.07,19.07,0,0,1-1.63,2.63c-1.56,2.5-3.13,5-4.67,7.51a55.27,55.27,0,0,1-4.48,6.89,11.82,11.82,0,0,0-1.31,2.75c-.72,1.56-1.3,3.17-2.83,4.25a2.91,2.91,0,0,1-1.87.64c-.71,0-1.42,0-2.22,0l-.45-2.21,1.84-.93a2,2,0,0,1-.54-2.29,6.33,6.33,0,0,1,2.29-2.75,3.64,3.64,0,0,0,1.79-2.55c.36-1.78,1.65-2.95,2.35-4.48.87-1.92,2.35-3.53,3-5.61a13.62,13.62,0,0,1,1.37-2.26,48,48,0,0,1,2.91-5.39c.87-1.21,1.22-2.81,2.55-3.68C190.62,280.59,192.17,279.89,192.66,278.29ZM199.29,267c-1.69,0-3-.35-4,.08-1.86.83-3.84,1.3-5.61,2.46-1.2.79-1.83,2-3,2.78a2.25,2.25,0,0,0-.49,2.67c.41.64,1.55.73,2.71.21.07,0,.11-.15.18-.16a4.89,4.89,0,0,0,2.45-1.49c.77-.72,1.67-1.31,2.45-2C195.58,270.09,196.91,268.39,199.29,267Z"/><path class="cls-1" d="M136.35,264.84c.18,2.07.29,4.13.56,6.18a5.7,5.7,0,0,1-.59,3.3c-.8,1.52-.53,3.39-1.74,4.73-.16.18-.1.61-.05.91a4.86,4.86,0,0,1-.62,2.58,16.72,16.72,0,0,1-.88,2.7c-1.18,1.94-1.9,4.17-3.28,5.95-2.21,2.87-4,6.12-7.33,8.05a11.76,11.76,0,0,0-1.52,1.48,5.57,5.57,0,0,1-4.23,1.74,19.94,19.94,0,0,1-3.92-.23,6.61,6.61,0,0,1-3.64-2.28c.07-.29.25-.61.15-.74a2.26,2.26,0,0,1-.15-2.21,28.25,28.25,0,0,0,1.22-4.45c.33-1.2.8-2.36,1-3.59a34.93,34.93,0,0,1,2-6c.5-1.26,1.4-2.39,1.82-3.73s1.57-2.17,2.24-3.33c1.13-2,2.81-3.5,4-5.4a13.44,13.44,0,0,1,2.18-2.63,28.35,28.35,0,0,1,2.62-1.64,47.6,47.6,0,0,1,4.62-2.49c.54-.29,1-.8,1.55,0,.16.2.75.08,1.14,0A3.3,3.3,0,0,1,136.35,264.84Zm-6.7,3.61a37.59,37.59,0,0,0-6.39,7.27,31,31,0,0,0-4.43,8.53c-.63,1.9-1.31,3.84-2.13,5.71s-1.7,3.74-.86,5.93a5.16,5.16,0,0,1,1.26.76c.86.9,1.62.51,2.64.23s1.05-1.24,1.56-1.81a16.09,16.09,0,0,0,3.39-5.18c.57-1.57,1.66-3,2.07-4.55s1.4-3.21,1.67-5c.32-2.18,1.57-4.18,1.39-6.49,0-.1.28-.2.31-.33.38-1.5.74-3,1.07-4.51,0-.18-.12-.4-.17-.57Z"/><path class="cls-1" d="M115.52,260.41l1.48,2.08c-.79.86-1.26,2-2.64,2.3-1,.22-.57,1.41-1,2.11s-.57,2.33-1,2.55c-1,.58-.89,2.17-2.29,2.39-.17,0-.11,1.07-.36,1.18-1.35.6-1.31,2.27-2.45,3a1.48,1.48,0,0,0-.73,1.6,1.1,1.1,0,0,1-.29.8,4.27,4.27,0,0,0-1.17,2.38c-.06.42-.17,1.18-.9,1.36-.17,0-.44.25-.43.38.07,1.86-1.16,3.32-1.57,5a9,9,0,0,1-2.47,3.89c-.68.69-.48,1.57-1.09,2.19a14,14,0,0,0-1.48,2s.28.3.28.31l-4.29,6h-2l-1.52-1.52c.92-1.55,1.83-3.11,2.76-4.67.3-.51.86-1,0-1.53a.74.74,0,0,1,.09-.6c.88-.27-.49-.71.16-1.25.88-.72,1.22-2,1.81-3,.85-1.4,1.25-3,2.06-4.38.63-1.08,1.07-2.42,1.63-3.55s1-2.8,2.23-3.81c.18-.15.44-.33.45-.51.16-2.19,2-3.41,2.89-5.19a31.51,31.51,0,0,1,4.14-6.1,7.16,7.16,0,0,0,.74-2.46c1,.08,1.22-1.5,2.41-1.56.62-1.69,2.07-1.39,3.39-1.42C114.76,260.4,115,260.41,115.52,260.41Z"/><path class="cls-1" d="M135.72,304.81h-2.16l-1.45-1.18c.47-1.39,1.4-2.39,1.54-3.79.1-1,1.53-1.5,1.35-2.74,1.18-.84,1.19-2.34,1.92-3.45s1.2-2.33,1.87-3.47,1.52-2.19,2.13-3.36c.94-1.81,1.71-3.7,2.59-5.54.56-1.18.92-2.45,1.49-3.62.21-.44-.28-1.43.8-1.36a19.78,19.78,0,0,1,.55-1.9,13.17,13.17,0,0,1,1-2c.34-.57.78-1.09,1.16-1.65s.79-1.24,1.17-1.87a11.8,11.8,0,0,1,1-1.69c.84-.94,1.82-1.75,2.64-2.7a9.24,9.24,0,0,1,2-2c1-.62,3.21-.18,3.66.8a1.6,1.6,0,0,1-.21,1.92,19.45,19.45,0,0,0-2.16,2.64,10.93,10.93,0,0,0-1.17,2.58c-.27.87-.06,2-1.32,2.26-.09,0-.19.26-.17.38.21,1.15-.58,2-1,2.91-.52,1.27-1.25,2.48-1.67,3.78-.73,2.25-2.32,3.93-3.56,5.84a66.18,66.18,0,0,0-3.78,5.51,28.52,28.52,0,0,1-2.87,4c-.41.54-.94.9-.93,1.76,0,.57-1.12.86-.88,1.73a51.27,51.27,0,0,0-2.53,5.09C136.53,304.18,136.07,304.46,135.72,304.81Z"/><path class="cls-1" d="M153.45,304.83l-2-3.27c.83-1.52,2.18-2.36,3.27-3.45a4.06,4.06,0,0,1,4.09-.76c1.21.32,2.63.64,3.46,1.89a3.37,3.37,0,0,1,.17,2.48c-.85,2.24-2.85,2.72-4.81,3.06A25.15,25.15,0,0,1,153.45,304.83Z"/><path class="cls-1" d="M183.43,229.69a11.08,11.08,0,0,1-1.63,0,2.18,2.18,0,0,1-1.92-2.08c-.23-1.46-.11-7.23.6-8.56s-.18-2.64.82-3.68c-.18-2.38,1.06-4.46,1.47-6.72a9.67,9.67,0,0,1,.91-2.45,3.16,3.16,0,0,1,4.58-1.39,1.52,1.52,0,0,1,.57,1.15c-.15,1.75.51,3.56-.43,5.25-.1.18,0,.46,0,.7-.13.9.32,1.86-.28,2.72s.25,2-.48,2.87c-.6.72.31,1.89-.66,2.56.15,2.3-.82,4.35-1.35,6.51a3.41,3.41,0,0,1-1,2C184.2,228.88,183.83,229.29,183.43,229.69Z"/><path class="cls-1" d="M68.93,206.81l1.56-1.7a19.3,19.3,0,0,1,2.68.51,3.19,3.19,0,0,1,1.69,2,7.49,7.49,0,0,1,.57,2.59,32.26,32.26,0,0,1-.06,6.81c-.37,2,0,4-.45,5.94s-.1,4-1.33,5.81A5,5,0,0,1,69,231.11c-.67-.09-1.2-.44-1.1-1.19.2-1.42-.54-2.95.45-4.29.07-.1,0-.31,0-.46v-.48c0-2,0-4.08,0-6.12a31.16,31.16,0,0,1,.23-5.81C69,210.73,68.53,208.74,68.93,206.81Z"/><path class="cls-1" d="M214.65,216.94l-.74-1.18c.9-.48.25-1.41.62-2.09a7.75,7.75,0,0,0,.84-3.42,27.33,27.33,0,0,0,.46-3.09c-.06-.74.53-1.09,1.4-1.1,1.11,0,1.82.91,2.8,1.17,0,.75.61,1.32.52,2.15-.12,1.16.12,2.36-.06,3.51a5.38,5.38,0,0,1-4.76,4C215.34,217,215,216.94,214.65,216.94Z"/><path class="cls-1" d="M251.71,209.8c.32,2.35-.85,4.81-.47,7.37-.8,1.68-.38,3.48-.48,5.22-.09,1.57-.92,3-1,4.55,0,.42-.6.89-1,1.2-1.14.83-2.29,1.7-3.83,1.56-.81-.08-1.25-.46-1.22-1.3s-.26-1.49.34-2.22c.27-.33.12-1.05.1-1.59a16.32,16.32,0,0,1,.88-5.52,7,7,0,0,0,0-3,6,6,0,0,1,.61-3.52c.39-.75,0-1.55.55-2.14s.17-1.34.29-2,.28-1.61.49-2.39c.1-.4,1.35-.83,1.82-.68.06,0,.1.12.17.16.79.42,2.08-.39,2.49.68a10.36,10.36,0,0,1,.23,3C251.72,209.28,251.71,209.44,251.71,209.8Z"/><path class="cls-1" d="M304.47,202.81c2-.53,3.24.93,4.89,2.4.5,1.74-.27,3.94-.58,6.08-.24,1.69-1.71,2.82-3.56,3.35a2.32,2.32,0,0,1-1.91-.25c-.43-.24-.95-.67-.3-1.29a.76.76,0,0,0,.19-.61c-.29-1.27.56-2.36.5-3.59s0-2.36,0-3.54A3.25,3.25,0,0,1,304.47,202.81Z"/></svg>